<svg width="800px" height="800px" viewBox="0 0 800 800" xmlns="http://www.w3.org/2000/svg">
  <path fill="#FFFFFF" d="M580.9,630.3c-8-10.1-16.5-20-24.9-30.1c-7.2-8.6-14.3-17.2-21.5-25.7c-2.9-3.4-6.1-6.6-9.1-9.8c-8.9-9.4-17.8-18.9-26.7-28.2c-1.8-1.9-3.8-3.5-5.8-5.2c-8-6.9-16.2-13.5-25.8-18.1c-11.9-5.7-20.8-3.3-28.2,7.5c-7.1,10.5-7.6,21.7-2.6,33.2c3.6,8.2,9.3,14.8,16.1,20.5c10.7,9,22.8,15.6,34.9,22.3c5.8,3.2,11.6,6.3,17.5,9.4c2.4,1.3,2.9,2.9,1.7,5.4c-4.7,9.3-9.3,18.6-14,28c-5.6-2.7-11-5.2-16.3-7.9c-24.5-12.3-49-24.7-73.5-37c-4-2-5.8-1.6-8.9,1.6c-12,12.2-24.2,24.2-36.3,36.3c-3.4,3.4-6.8,6.8-10,10.3c-10.5,11.6-22.8,19.8-38.5,22.1c-13.8,2-26.1-1.6-37.4-8.8c-12.2-7.8-22.8-17.7-32.2-28.8c-10.9-12.9-21-26.4-31-40c-6.7-9.2-12.7-18.8-18.3-28.7c-1.9-3.2-1.8-4.5,1.4-6.7c31.2-21.3,62.3-42.7,93.5-64c0.5-0.3,1-0.6,1.4-1c0.6-0.6,1.1-1.3,1.6-1.9c-1.3-2.1-2.5-1.7-3.9-1c-2.6,1.3-5,2.9-7.5,4.4c-25.9,15-51.9,30.1-77.8,45.1c-1.9,1.1-3.2,0.9-4.8-0.3c-11.1-8-22.3-15.9-33.5-23.7c-1.2-0.9-2.7-1.3-2.8-3.3c7.4-4.7,14.6-9.6,22-14.2c6.5-4.1,13.3-7.9,20-11.8c4.4-2.6,8.7-5.2,13.2-7.6c16.8-9,33.7-17.8,50.5-26.8c2.6-1.4,5.1-2.9,7.7-4.3c2.1-1.2,2.5-2.6,1.2-4.6c-3.1-4.7-6.2-9.4-9.3-14.1c-2.6-3.9-5.1-7.8-7.7-11.7c-0.6-0.9-1.3-1.7-2.2-2.9c-3.1,1.9-6.1,3.8-9.1,5.8c-3.7,2.4-7.4,4.9-11.1,7.3c-6.8,4.4-13.6,8.9-20.4,13.3c-4.7,3.1-9.4,6.1-14.1,9.2c-9.4,6.1-18.9,12.3-28.3,18.5c-9.4,6.1-18.8,12.3-28.1,18.4c-13.5,8.8-27,17.5-40.5,26.4c-0.4,0.2-0.8,0.5-1.1,0.9c-0.5,0.6-1.3,1.2-1.2,2.1c0.1,0.7,1,1,1.6,1.3c2.2,0.9,4.4,1.9,6.5,2.9c14.2,7.2,28.3,14.4,42.5,21.5c1.2,0.6,2.6,1.3,3.3,3.1c-3.2,2.1-6.4,4.3-9.7,6.4c-2.8,1.9-5.6,3.8-8.4,5.6c-0.5,0.4-1.1,0.6-1.8,0.9c-0.2-0.3-0.1-0.6-0.1-0.8c0.2-6.7-0.9-13.2-2.6-19.7c-1.7-6.8-3.9-13.4-6.4-19.9c-6.4-16.4-15-31.6-26.6-44.9c-15.3-17.7-34.7-29.2-57.6-34.9c-10.8-2.7-21.7-3.8-32.8-3.1c-26.4,1.6-48,12.5-65.4,32.2c-17.1,19.4-27,42.5-30.8,68.2c-3.3,22.1-1.2,43.7,6.5,64.7c11.7,31.9,33.3,54.8,64.5,68c8.8,3.7,17.9,6.4,27.3,8.3c11,2.2,22.1,3.1,33.2,2.4c26.2-1.6,49.1-10.8,68.5-28.2c9-8.1,16.1-17.6,23.3-27c1.1-1.4,2.3-1.7,3.9-0.7c4.2,2.7,8.5,5.2,12.8,7.7c5.6,3.3,11.3,6.5,16.9,9.8c2.1,1.2,2.5,2.4,1.1,4.6c-10.6,17.4-23.5,32.9-40.3,44.9c-15.6,11.1-32.9,17.9-52,20.2c-17.4,2.1-34.4,0.4-51.2-4.1c-16.7-4.5-32-12.1-46.3-22.3c-20.7-14.9-36.5-34-47.2-57.5c-12-26.2-16.2-53.7-12.3-82.4c2.9-21.1,10.2-40.5,22.1-57.9c13.7-20.1,32-34.8,54.2-44.5c17.3-7.6,35.4-11.6,54.2-11.8c20.9-0.3,41,3.6,60.2,11.7c21.6,9.1,39.7,23.2,54.6,41.8c8.7,10.8,15.5,22.7,21.1,35.4c1.1,2.4,2.2,4.9,3.8,8.5c3.5-2.3,6.8-4.5,10.1-6.7c9.7-6.3,19.3-12.7,29-19c8.2-5.4,16.5-10.7,24.6-16.3c1.6-1.1,3-1.7,5.1-0.9c9.3,3.7,18.7,7.2,28.1,10.8c1.2,0.5,2.4,1,3.5,1.6c4.1,2.3,8.2,4.7,12.4,6.9c13.9,7.4,27.9,14.6,41.8,21.9c3.1,1.6,5.8,3.9,9.1,5c0-0.8,0.1-1.1,0-1.4c-3.1-8.2-6.3-16.5-9.5-24.7c-0.8-2.1-0.6-3.2,1.3-4.4c9.7-6.2,19.4-12.4,28.9-18.8c11.2-7.5,22.2-15.2,33.3-22.9c17.1-11.9,34.2-23.7,51.4-35.5c10.7-7.4,21.5-14.8,32.2-22.2c4.9-3.4,9.7-7,14.6-10.4c1.1-0.8,2.3-1,3.6-0.6c1.1,0.3,2.1,0.8,3.2,1.3c14.1,6.7,28.3,13.4,42.4,20.2c17.6,8.4,35.2,16.9,52.9,25.3c9.5,4.5,19,8.9,28.5,13.4c4.8,2.3,9.6,4.6,14.5,6.8c2.3,1.1,2.5,2,1.2,4.1c-4.8,7.6-9.4,15.2-14.1,22.9c-0.9,1.5-1.9,1.7-3.4,1c-5.1-2.3-10.2-4.5-15.3-6.7c-13.8-6-27.6-11.9-41.4-18c-13.6-6-27.1-12.1-40.7-18.1c-12.9-5.7-25.9-11.4-38.8-17.2c-1.2-0.5-2.3-1.3-3.5-1.9c-0.5-0.3-1.1-0.7-1.9-0.4c-0.4,0.3-0.7,0.6-1,0.9c-2.5,2-5,4.1-7.6,6c-6.2,4.5-12.4,9-18.6,13.5c-8.4,6.1-16.7,12.2-25.1,18.3c-3.1,2.3-6.2,4.5-9.3,6.8c-0.7,0.5-1.3,1-2,1.5c-1.1,0.7-1.3,1.7-0.7,2.9c4,8.6,8,17.2,12,25.8c2.1,4.4,4.2,8.9,6.3,13.3c0.4,0.8,0.8,1.7,1.1,2.5c0.6,1.6,0.2,2.8-1.2,3.8c-2.3,1.7-4.6,3.3-6.9,5c-1.7,1.2-3.7,1.9-5.1,3.6c8.5,4.5,16.8,8.9,25.2,13.4c20.6,11,41.3,22.1,61.9,33.1c3.7,2,7.4,4,11.1,6c1.3,0.7,1.5,1.6,1,2.9c-3.8,8.3-7.5,16.6-11.3,24.8c-0.6,1.3-1.4,1.4-2.5,0.8c-4.8-2.2-9.6-4.3-14.3-6.5c-23.5-11-47-22-70.4-33.1c-1.7-0.8-3.5-1.5-5.2-2.2c-4.3-1.7-7.5-0.3-9.2,4.3c-2.7,7.1-2.2,14,1.8,20.7c3.9,6.4,9.3,11.1,15.2,15.4c10.5,7.7,21.9,14,33.4,20.2c16.2,8.6,32.5,16.9,48.8,25.3c2.3,1.2,2.8,2.5,1.7,4.7c-4.7,9.2-9.3,18.5-13.9,27.7c-0.5,1-1,1.9-2.3,1.4C582.5,631.5,581.7,631,580.9,630.3z"/>
</svg> 